<?xml version="1.0" encoding="UTF-8" standalone="no"?>
<!-- Generator: Adobe Illustrator 23.0.2, SVG Export Plug-In . SVG Version: 6.00 Build 0)  -->

<svg
   xmlns:dc="http://purl.org/dc/elements/1.1/"
   xmlns:cc="http://creativecommons.org/ns#"
   xmlns:rdf="http://www.w3.org/1999/02/22-rdf-syntax-ns#"
   xmlns:svg="http://www.w3.org/2000/svg"
   xmlns="http://www.w3.org/2000/svg"
   xmlns:sodipodi="http://sodipodi.sourceforge.net/DTD/sodipodi-0.dtd"
   xmlns:inkscape="http://www.inkscape.org/namespaces/inkscape"
   version="1.1"
   id="图层_1"
   x="0px"
   y="0px"
   viewBox="0 0 1000 580"
   style="enable-background:new 0 0 1000 580;"
   xml:space="preserve"
   sodipodi:docname="404-page-cn.svg"
   inkscape:version="0.92.4 (33fec40, 2019-01-16)"><metadata
   id="metadata1724"><rdf:RDF><cc:Work
       rdf:about=""><dc:format>image/svg+xml</dc:format><dc:type
         rdf:resource="http://purl.org/dc/dcmitype/StillImage" /></cc:Work></rdf:RDF></metadata><defs
   id="defs1722" /><sodipodi:namedview
   pagecolor="#ffffff"
   bordercolor="#666666"
   borderopacity="1"
   objecttolerance="10"
   gridtolerance="10"
   guidetolerance="10"
   inkscape:pageopacity="0"
   inkscape:pageshadow="2"
   inkscape:window-width="1203"
   inkscape:window-height="875"
   id="namedview1720"
   showgrid="false"
   inkscape:zoom="1.296"
   inkscape:cx="607.74154"
   inkscape:cy="134.87419"
   inkscape:window-x="75"
   inkscape:window-y="34"
   inkscape:window-maximized="0"
   inkscape:current-layer="图层_1" />
<style
   type="text/css"
   id="style1602">
	.st0{fill:#FFFFFF;}
	.st1{fill:url(#polygon12_1_);}
	.st2{fill:url(#polygon21_1_);}
	.st3{opacity:0.27;fill:url(#circle28_1_);enable-background:new    ;}
	.st4{opacity:0.27;fill:url(#circle42_1_);enable-background:new    ;}
	.st5{opacity:0.27;fill:url(#circle49_1_);enable-background:new    ;}
	.st6{fill:url(#polygon58_1_);}
	.st7{fill:#444444;stroke:#FFFFFF;stroke-miterlimit:10;}
	.st8{fill:none;stroke:#FFFFFF;stroke-width:1.323;stroke-miterlimit:10;}
	.st9{fill:none;stroke:#353535;stroke-width:1.323;stroke-miterlimit:10;}
	.st10{fill:#FFFFFF;stroke:#444444;stroke-miterlimit:10;}
	.st11{fill:#353535;}
	.st12{fill:none;stroke:#FFFFFF;stroke-width:1.1222;stroke-miterlimit:10;}
	.st13{fill:none;stroke:#353535;stroke-width:1.1222;stroke-miterlimit:10;}
	.st14{fill:#FFFFFF;stroke:#444444;stroke-width:0.8482;stroke-miterlimit:10;}
	.st15{opacity:0.59;fill:#E0E0E0;enable-background:new    ;}
	.st16{fill:#FFFFFF;stroke:#444444;stroke-width:2;stroke-miterlimit:10;}
	.st17{fill:none;stroke:#444444;stroke-width:2;stroke-miterlimit:10;}
	.st18{fill:none;stroke:#444444;stroke-linecap:round;stroke-linejoin:round;stroke-miterlimit:10;}
	.st19{fill:#4D4D4D;enable-background:new    ;}
	.st20{font-family:'Arial-Black';}
	.st21{font-size:237.7939px;}
	.st22{fill:#9E9E9E;enable-background:new    ;}
	.st23{font-size:85.1719px;}
	.st24{font-family:'NotoSansCJKsc-Medium-GBpc-EUC-H';}
	.st25{font-size:50px;}
</style>
<rect
   id="BG_2_"
   x="-1"
   y="-9.5"
   inkscape:export-xdpi="96.009476"
   inkscape:export-ydpi="96.009476"
   class="st0"
   width="1012.9"
   height="600.4">
</rect>
<linearGradient
   id="polygon12_1_"
   gradientUnits="userSpaceOnUse"
   x1="1018.3077"
   y1="101.6061"
   x2="1081.1415"
   y2="368.1072"
   gradientTransform="matrix(0.9556 0.295 -0.2974 0.9605 -400.3649 -336.724)">
	<stop
   offset="4.835800e-02"
   style="stop-color:#9FA0A0"
   id="stop1605" />
	<stop
   offset="0.5227"
   style="stop-color:#D7D8D8;stop-opacity:0.4381"
   id="stop1607" />
	<stop
   offset="0.8926"
   style="stop-color:#FFFFFF;stop-opacity:0"
   id="stop1609" />
</linearGradient>
<polygon
   id="polygon12"
   inkscape:export-xdpi="96.009476"
   inkscape:export-ydpi="96.009476"
   class="st1"
   points="608.7,383.9   511.9,146.7 490.9,146.1 430.7,389.2 ">
</polygon>
<linearGradient
   id="polygon21_1_"
   gradientUnits="userSpaceOnUse"
   x1="199.066"
   y1="454.616"
   x2="281.8522"
   y2="805.7432"
   gradientTransform="matrix(0.9983 -5.887031e-02 5.887031e-02 0.9983 28.0536 -430.7623)">
	<stop
   offset="4.835800e-02"
   style="stop-color:#898989"
   id="stop1613" />
	<stop
   offset="0.5874"
   style="stop-color:#D7D7D7;stop-opacity:0.3616"
   id="stop1615" />
	<stop
   offset="0.8926"
   style="stop-color:#FFFFFF;stop-opacity:0"
   id="stop1617" />
</linearGradient>
<polygon
   id="polygon21"
   inkscape:export-xdpi="96.009476"
   inkscape:export-ydpi="96.009476"
   class="st2"
   points="331.2,169   287.9,181.7 291.9,449 480.9,462.4 ">
</polygon>
<radialGradient
   id="circle28_1_"
   cx="806.6"
   cy="274.5998"
   r="115.0294"
   gradientTransform="matrix(1 0 0 1 12 -19.0997)"
   gradientUnits="userSpaceOnUse">
	<stop
   offset="0"
   style="stop-color:#FFFFFF"
   id="stop1621" />
	<stop
   offset="1"
   style="stop-color:#FFFFFF;stop-opacity:0"
   id="stop1623" />
</radialGradient>
<circle
   id="circle28"
   inkscape:export-xdpi="96.009476"
   inkscape:export-ydpi="96.009476"
   class="st3"
   cx="818.6"
   cy="255.5"
   r="119.4">
</circle>
<radialGradient
   id="circle42_1_"
   cx="836.3"
   cy="518.5997"
   r="65.7125"
   gradientTransform="matrix(1 0 0 1 12 -19.0997)"
   gradientUnits="userSpaceOnUse">
	<stop
   offset="0"
   style="stop-color:#FFFFFF"
   id="stop1627" />
	<stop
   offset="1"
   style="stop-color:#FFFFFF;stop-opacity:0"
   id="stop1629" />
</radialGradient>
<circle
   id="circle42"
   inkscape:export-xdpi="96.009476"
   inkscape:export-ydpi="96.009476"
   class="st4"
   cx="848.3"
   cy="499.5"
   r="68.3">
</circle>
<radialGradient
   id="circle49_1_"
   cx="477.9"
   cy="92.4997"
   r="65.7434"
   gradientTransform="matrix(1 0 0 1 12 18.9003)"
   gradientUnits="userSpaceOnUse">
	<stop
   offset="0"
   style="stop-color:#FFFFFF"
   id="stop1633" />
	<stop
   offset="1"
   style="stop-color:#FFFFFF;stop-opacity:0"
   id="stop1635" />
</radialGradient>
<circle
   id="circle49"
   inkscape:export-xdpi="96.009476"
   inkscape:export-ydpi="96.009476"
   class="st5"
   cx="489.9"
   cy="111.4"
   r="68.3">
</circle>
<linearGradient
   id="polygon58_1_"
   gradientUnits="userSpaceOnUse"
   x1="1869.6483"
   y1="425.7972"
   x2="1935.83"
   y2="706.4986"
   gradientTransform="matrix(0.8607 0.5092 -0.5092 0.8607 -635.7186 -1225.6498)">
	<stop
   offset="4.835800e-02"
   style="stop-color:#898989"
   id="stop1639" />
	<stop
   offset="0.5874"
   style="stop-color:#D7D7D7;stop-opacity:0.3616"
   id="stop1641" />
	<stop
   offset="0.8926"
   style="stop-color:#FFFFFF;stop-opacity:0"
   id="stop1643" />
</linearGradient>
<polygon
   id="polygon58"
   inkscape:export-xdpi="96.009476"
   inkscape:export-ydpi="96.009476"
   class="st6"
   points="547.4,395   763.1,440.2 713.7,175.4 683.8,168 ">
</polygon>
<g
   id="g94"
   transform="rotate(9.0573675,796.06564,263.99283)"
   inkscape:export-xdpi="96.009476"
   inkscape:export-ydpi="96.009476">
	<path
   id="path60"
   inkscape:connector-curvature="0"
   class="st7"
   d="M529.4,169.7l-90.9,12.5c-6.7,0.9-12.9-3.8-13.8-10.4l0,0   c-0.9-6.7,3.8-12.9,10.4-13.8l90.9-12.5c6.7-0.9,12.9,3.8,13.8,10.4l0,0C540.8,162.6,536.1,168.8,529.4,169.7L529.4,169.7z" />
	
		<ellipse
   id="circle62"
   transform="matrix(0.1574 -0.9875 0.9875 0.1574 206.8742 580.4645)"
   class="st8"
   cx="443.6"
   cy="169"
   rx="6.7"
   ry="6.7" />
	
		<ellipse
   id="circle64"
   transform="matrix(0.1574 -0.9875 0.9875 0.1574 232.8418 603.6996)"
   class="st8"
   cx="470.2"
   cy="165.4"
   rx="6.7"
   ry="6.7" />
	
		<ellipse
   id="circle66"
   transform="matrix(0.1574 -0.9875 0.9875 0.1574 307.3344 544.4076)"
   class="st9"
   cx="472.7"
   cy="92.1"
   rx="4.7"
   ry="4.7" />
	
		<ellipse
   id="circle68"
   transform="matrix(0.1574 -0.9875 0.9875 0.1574 259.3295 627.3442)"
   class="st8"
   cx="497.3"
   cy="161.7"
   rx="6.7"
   ry="6.7" />
	
		<ellipse
   id="circle70"
   transform="matrix(0.1574 -0.9875 0.9875 0.1574 285.2564 649.9315)"
   class="st8"
   cx="523.5"
   cy="157.8"
   rx="6.7"
   ry="6.7" />
	<path
   id="path72"
   inkscape:connector-curvature="0"
   class="st10"
   d="M517.4,144.9L443.9,155l-0.5-3.3c-0.2-1.8,1-3.5,2.8-3.7   l66.8-9.2c1.8-0.2,3.5,1,3.7,2.8L517.4,144.9z" />
	<path
   id="path74"
   inkscape:connector-curvature="0"
   class="st10"
   d="M529.3,171.5l-90,12.4l0.4,2.9c0.3,2,2.1,3.4,4.1,3.1   l82.8-11.4c2-0.3,3.4-2.1,3.1-4.1L529.3,171.5z" />
	<path
   id="path76"
   inkscape:connector-curvature="0"
   class="st9"
   d="M515.2,181.9l-60.5,8.3l0.5,3.6c0.2,1.6,1.8,2.8,3.4,2.6   l54.5-7.5c1.6-0.2,2.8-1.8,2.6-3.4L515.2,181.9z" />
	<path
   id="path78"
   inkscape:connector-curvature="0"
   class="st9"
   d="M504.8,138l-52.4,7.2l-2.2-15.8c-1.2-8.7,4.9-16.8,13.6-18   l20.7-2.9c8.7-1.2,16.8,4.9,18,13.6L504.8,138z" />
	<line
   id="line80"
   class="st9"
   x1="473.6"
   y1="98.3"
   x2="475"
   y2="108.5" />
	<line
   id="line82"
   class="st9"
   x1="471.4"
   y1="120.8"
   x2="462.8"
   y2="135.6" />
	<line
   id="line84"
   class="st9"
   x1="488.5"
   y1="119"
   x2="479.9"
   y2="133.7" />
	<path
   id="path86"
   inkscape:connector-curvature="0"
   class="st10"
   d="M470.3,196.8l-4.5,12.3c-0.2,0.6,0.6,1.1,1,0.6l12.6-13.5   c0.4-0.4,0-1.1-0.5-1l-8.2,1.2C470.6,196.4,470.4,196.6,470.3,196.8z" />
	<path
   id="path88"
   inkscape:connector-curvature="0"
   class="st10"
   d="M458.3,198.3l-7.5,11c-0.4,0.6,0.3,1.2,0.9,0.8L467,198   c0.5-0.4,0.2-1.1-0.5-1.1l-7.9,1.1C458.5,198.1,458.4,198.2,458.3,198.3L458.3,198.3z" />
	<path
   id="path90"
   inkscape:connector-curvature="0"
   class="st10"
   d="M501.4,192.3l7.6,10.6c0.4,0.5-0.2,1.2-0.8,0.9l-15.8-9.6   c-0.5-0.3-0.3-1,0.2-1.1l8.2-1C501,192,501.2,192.1,501.4,192.3L501.4,192.3z" />
	<path
   id="path92"
   inkscape:connector-curvature="0"
   class="st10"
   d="M513.4,190.5l10.2,8.6c0.5,0.4,0,1.3-0.6,1l-18.1-7.5   c-0.6-0.2-0.5-1.1,0.1-1.1l7.9-1.1C513.1,190.3,513.2,190.4,513.4,190.5L513.4,190.5z" />
</g>
<g
   id="g130"
   transform="translate(-131.09867,-443.26745)"
   inkscape:export-xdpi="96.009476"
   inkscape:export-ydpi="96.009476">
	<path
   id="path96"
   inkscape:connector-curvature="0"
   class="st7"
   d="M878.4,605.6L788,590c-6.6-1.1-11.1-7.5-10-14.1l0,0   c1.1-6.6,7.5-11.1,14.1-10l90.4,15.6c6.6,1.1,11.1,7.5,10,14.1l0,0C891.3,602.3,885,606.8,878.4,605.6z" />
	<circle
   id="circle98"
   class="st8"
   cx="796.7"
   cy="579"
   r="6.7" />
	<circle
   id="circle100"
   class="st8"
   cx="823.3"
   cy="583.6"
   r="6.7" />
	<circle
   id="circle102"
   class="st9"
   cx="847.8"
   cy="514.5"
   r="4.7" />
	<circle
   id="circle104"
   class="st8"
   cx="850.2"
   cy="588.2"
   r="6.7" />
	<circle
   id="circle106"
   class="st8"
   cx="876.3"
   cy="592.5"
   r="6.7" />
	<path
   id="path108"
   inkscape:connector-curvature="0"
   class="st10"
   d="M874.4,578.3l-73-12.6l0.6-3.3c0.3-1.8,2-3,3.8-2.7l66.5,11.5   c1.8,0.3,3,2,2.7,3.8L874.4,578.3z" />
	<path
   id="path110"
   inkscape:connector-curvature="0"
   class="st10"
   d="M877.7,607.3l-89.6-15.5l-0.5,2.9c-0.3,2,1,3.9,3,4.3   l82.3,14.2c2,0.3,3.9-1,4.3-3L877.7,607.3z" />
	<path
   id="path112"
   inkscape:connector-curvature="0"
   class="st11"
   d="M861.1,612.9l-60.2-10.4l-0.6,3.6c-0.3,1.6,0.8,3.2,2.5,3.5   L857,619c1.6,0.3,3.2-0.8,3.5-2.5L861.1,612.9z" />
	<path
   id="path114"
   inkscape:connector-curvature="0"
   class="st9"
   d="M864.5,568l-52.1-9l2.7-15.7c1.5-8.6,9.8-14.5,18.4-13   l20.6,3.6c8.6,1.5,14.5,9.8,13,18.4L864.5,568z" />
	<line
   id="line116"
   class="st9"
   x1="846.7"
   y1="520.7"
   x2="845"
   y2="530.8" />
	<line
   id="line118"
   class="st9"
   x1="837.8"
   y1="541.5"
   x2="825.2"
   y2="553" />
	<line
   id="line120"
   class="st9"
   x1="854.7"
   y1="544.9"
   x2="842.1"
   y2="556.4" />
	<path
   id="path122"
   inkscape:connector-curvature="0"
   class="st10"
   d="M813.8,613.5l-8,10.3c-0.4,0.5,0.2,1.2,0.8,0.9l16.1-9   c0.5-0.3,0.4-1-0.2-1.1l-8.2-1.3C814.2,613.3,814,613.4,813.8,613.5L813.8,613.5z" />
	<path
   id="path124"
   inkscape:connector-curvature="0"
   class="st10"
   d="M801.9,611.4l-10.5,8.2c-0.5,0.4-0.1,1.3,0.6,1l18.3-6.9   c0.6-0.2,0.5-1-0.1-1.2l-7.8-1.4C802.2,611.2,802,611.3,801.9,611.4L801.9,611.4z" />
	<path
   id="path126"
   inkscape:connector-curvature="0"
   class="st10"
   d="M844.8,618.6l4.1,12.4c0.2,0.6-0.6,1.1-1,0.6l-12.2-13.9   c-0.4-0.4,0-1.1,0.6-1l8.1,1.5C844.6,618.3,844.7,618.4,844.8,618.6L844.8,618.6z" />
	<path
   id="path128"
   inkscape:connector-curvature="0"
   class="st10"
   d="M856.8,620.6l7.1,11.3c0.4,0.6-0.4,1.2-0.9,0.8l-15-12.6   c-0.5-0.4-0.1-1.2,0.5-1l7.8,1.4C856.5,620.3,856.7,620.4,856.8,620.6L856.8,620.6z" />
</g>
<g
   id="g166"
   transform="translate(6.564267,-535.67492)"
   inkscape:export-xdpi="96.009476"
   inkscape:export-ydpi="96.009476">
	<path
   id="path132"
   inkscape:connector-curvature="0"
   class="st7"
   d="M336.2,686.5l-75.3,19.6c-5.5,1.4-11.2-1.9-12.6-7.4l0,0   c-1.4-5.5,1.9-11.2,7.4-12.6l75.3-19.6c5.5-1.4,11.2,1.9,12.6,7.4l0,0C345,679.4,341.7,685.1,336.2,686.5z" />
	<circle
   id="circle134"
   class="st12"
   cx="263.8"
   cy="694.5"
   r="5.7" />
	<circle
   id="circle136"
   class="st12"
   cx="285.9"
   cy="688.8"
   r="5.7" />
	<circle
   id="circle138"
   class="st13"
   cx="280.6"
   cy="626.8"
   r="4" />
	<circle
   id="circle140"
   class="st12"
   cx="308.3"
   cy="682.9"
   r="5.7" />
	<circle
   id="circle142"
   class="st12"
   cx="330"
   cy="677.1"
   r="5.7" />
	<path
   id="path144"
   inkscape:connector-curvature="0"
   class="st14"
   d="M323.5,666.8l-60.8,15.9L262,680c-0.4-1.5,0.5-3,2-3.4   l55.4-14.4c1.5-0.4,3,0.5,3.4,2L323.5,666.8z" />
	<path
   id="path146"
   inkscape:connector-curvature="0"
   class="st14"
   d="M336.2,688l-74.6,19.5l0.6,2.4c0.4,1.7,2.1,2.7,3.8,2.2   l68.6-17.9c1.7-0.4,2.7-2.1,2.2-3.8L336.2,688z" />
	<path
   id="path148"
   inkscape:connector-curvature="0"
   class="st11"
   d="M325.4,698.2l-50.1,13.1l0.8,3c0.4,1.4,1.8,2.2,3.1,1.8   l45.2-11.8c1.4-0.4,2.2-1.8,1.8-3.1L325.4,698.2z" />
	<path
   id="path150"
   inkscape:connector-curvature="0"
   class="st13"
   d="M312.3,662.2l-43.4,11.3l-3.4-13.1   c-1.9-7.2,2.5-14.6,9.7-16.5l17.2-4.5c7.2-1.9,14.6,2.5,16.5,9.7L312.3,662.2z" />
	<line
   id="line152"
   class="st13"
   x1="282"
   y1="632"
   x2="284.2"
   y2="640.4" />
	<line
   id="line154"
   class="st13"
   x1="282.4"
   y1="651.1"
   x2="276.7"
   y2="664.4" />
	<line
   id="line156"
   class="st13"
   x1="296.6"
   y1="647.9"
   x2="290.9"
   y2="661.2" />
	<path
   id="path158"
   inkscape:connector-curvature="0"
   class="st14"
   d="M289.1,715.2l-2.5,10.8c-0.1,0.5,0.6,0.9,0.9,0.4l9.3-12.6   c0.3-0.4-0.1-0.9-0.5-0.8l-6.8,1.9C289.3,714.9,289.1,715,289.1,715.2L289.1,715.2z" />
	<path
   id="path160"
   inkscape:connector-curvature="0"
   class="st14"
   d="M279.1,717.7l-5.2,10c-0.3,0.5,0.4,1,0.8,0.6l11.7-11.7   c0.4-0.4,0-1-0.5-0.9l-6.5,1.7C279.3,717.5,279.2,717.6,279.1,717.7L279.1,717.7z" />
	<path
   id="path162"
   inkscape:connector-curvature="0"
   class="st14"
   d="M314.8,708.3l7.5,8.2c0.4,0.4-0.1,1-0.6,0.8l-14.3-6.5   c-0.4-0.2-0.4-0.8,0.1-1l6.8-1.7C314.5,708.1,314.7,708.2,314.8,708.3z" />
	<path
   id="path164"
   inkscape:connector-curvature="0"
   class="st14"
   d="M324.7,705.6l9.4,6.2c0.5,0.3,0.1,1.1-0.4,0.9l-16-4.5   c-0.5-0.1-0.5-0.9,0-1l6.5-1.7C324.5,705.5,324.6,705.5,324.7,705.6z" />
</g>
<path
   id="path168"
   inkscape:connector-curvature="0"
   inkscape:export-xdpi="96.009476"
   inkscape:export-ydpi="96.009476"
   class="st15"
   d="  M241.1,536.1h-1c0.4-1.2,0.6-2.4,0.6-3.7c0-7-5.7-12.7-12.7-12.7h-3.3c-2.7,0-5.2,0.9-7.2,2.3c-1.2-0.8-2.7-1.3-4.3-1.3  c-0.7,0-1.4,0.1-2.1,0.3c-0.1-3.9-3.3-7.1-7.2-7.1h-0.3c-2.2,0-4.1,1-5.4,2.5l0,0c2.7-3.8,4.4-8.5,4.4-13.6  c0-13-10.6-23.5-23.5-23.5c-13,0-23.5,10.6-23.5,23.5c0,0.7,0,1.3,0.1,1.9c-2.9,0.3-5.7,1.3-8,2.9c-3.2-4.3-8.2-7.1-13.9-7.1l0,0  c-9.5,0-17.3,7.8-17.3,17.3c0,0.1,0,0.3,0,0.4c-1.8-0.9-3.7-1.5-5.9-1.5c-6.9,0-12.6,5.7-12.6,12.6c0,0.7,0.1,1.5,0.2,2.2H92  c-3,0-5.5,1.9-6.5,4.5h-9.9c-2.5,0-4.5,2-4.5,4.5s2,4.5,4.5,4.5h149.2h3.3h13.1c2.5,0,4.5-2,4.5-4.5  C245.6,538.1,243.6,536.1,241.1,536.1L241.1,536.1z" />
<path
   id="path170"
   inkscape:connector-curvature="0"
   inkscape:export-xdpi="96.009476"
   inkscape:export-ydpi="96.009476"
   class="st15"
   d="  M898.4,528.3h-0.9c0.3-1,0.5-2.1,0.5-3.3c0-6.2-5.1-11.3-11.3-11.3h-2.9c-2.4,0-4.6,0.8-6.4,2c-1.1-0.7-2.4-1.1-3.8-1.1  c-0.6,0-1.2,0.1-1.8,0.3c-0.1-3.5-2.9-6.3-6.4-6.3H865c-1.9,0-3.6,0.9-4.8,2.2l0,0c2.4-3.4,3.9-7.6,3.9-12  c0-11.5-9.4-20.9-20.9-20.9s-20.9,9.4-20.9,20.9c0,0.6,0,1.2,0.1,1.7c-2.6,0.2-5,1.2-7.1,2.6c-2.8-3.8-7.3-6.3-12.3-6.3l0,0  c-8.5,0-15.4,6.9-15.4,15.4c0,0.1,0,0.2,0,0.4c-1.6-0.8-3.3-1.4-5.2-1.4c-6.2,0-11.2,5-11.2,11.2c0,0.7,0.1,1.3,0.2,1.9h-5.5  c-2.6,0-4.9,1.7-5.8,4h-8.8c-2.2,0-4,1.8-4,4s1.8,4,4,4h132.5h2.9h11.6c2.2,0,4-1.8,4-4C902.4,530.1,900.6,528.3,898.4,528.3  L898.4,528.3z" />
<g
   id="g184"
   transform="translate(10.641067,-115.56078)"
   inkscape:export-xdpi="96.009476"
   inkscape:export-ydpi="96.009476">
	<g
   id="g178">
		<path
   id="path172"
   inkscape:connector-curvature="0"
   class="st16"
   d="M149.5,598c2.4,4.6,6.2,8.3,10.8,10.8c3.6,1.9,7.6,3,11.9,3    c14.2,0,25.7-11.5,25.7-25.7c0-4.3-1.1-8.4-3-11.9c-2.4-4.6-6.2-8.3-10.8-10.8c-3.6-1.9-7.6-3-11.9-3c-14.2,0-25.7,11.5-25.7,25.7    C146.6,590.4,147.7,594.4,149.5,598z" />
		<path
   id="path174"
   inkscape:connector-curvature="0"
   class="st15"
   d="M194.1,574.5c-2.3-4.4-6-8.1-10.4-10.4    c-3.4-1.8-7.4-2.9-11.5-2.9c-9.5,0-17.7,5.3-21.8,13.1c4-2.8,8.9-4.4,14.1-4.4c4.2,0,8.1,1,11.5,2.9c4.4,2.3,8.1,6,10.4,10.4    c1.8,3.4,2.9,7.4,2.9,11.5c0,4.2-1.1,8.2-2.9,11.7c6.4-4.5,10.6-11.9,10.6-20.3C197,581.8,196,577.9,194.1,574.5L194.1,574.5z" />
		<path
   id="path176"
   inkscape:connector-curvature="0"
   class="st17"
   d="M149.5,598c-7.7,10-11.6,17.8-9.3,20.1s10.1-1.6,20.1-9.3    c5.6-4.4,12-9.9,18.3-16.3c6.4-6.4,11.9-12.7,16.3-18.3c7.7-10,11.6-17.8,9.3-20.1s-10.1,1.6-20.1,9.3" />
	</g>
	<path
   id="path180"
   inkscape:connector-curvature="0"
   class="st18"
   d="M154,578.3c0.5-1.2,1.1-2.3,1.8-3.4c0.7-1.1,1.5-2,2.4-2.9   s1.9-1.7,2.9-2.4c1.1-0.7,2.2-1.3,3.4-1.8s2.4-0.9,3.7-1.2s2.6-0.4,4-0.4" />
	<path
   id="path182"
   inkscape:connector-curvature="0"
   class="st18"
   d="M152.4,586.1c0-1.4,0.1-2.7,0.4-4" />
</g>
<g
   id="g192"
   transform="translate(-0.2304,235.22748)"
   inkscape:export-xdpi="96.009476"
   inkscape:export-ydpi="96.009476">
	<polygon
   id="polygon186"
   class="st16"
   points="843.4,228.1 850,216.1 856.6,228.1 868.7,234.7 856.6,241.3 850,253.4 843.4,241.3    831.4,234.7  " />
	<polygon
   id="polygon188"
   class="st16"
   points="868.4,260.1 873.4,251.1 878.3,260.1 887.4,265.1 878.3,270 873.4,279.1 868.4,270    859.4,265.1  " />
	<polygon
   id="polygon190"
   class="st16"
   points="884.1,219.8 887.4,213.7 890.7,219.8 896.7,223.1 890.7,226.4 887.4,232.4    884.1,226.4 878,223.1  " />
</g>
<text
   id="text194"
   inkscape:export-xdpi="96.009476"
   inkscape:export-ydpi="96.009476"
   transform="matrix(1 0 0 1 282.141 421.0223)"
   class="st19 st20 st21">404</text>

<text
   id="text202"
   inkscape:export-xdpi="96.009476"
   inkscape:export-ydpi="96.009476"
   class="st22 st20 st23"
   style="font-size:85.17189789px;font-family:Arial-Black;fill:#9e9e9e;enable-background:new"
   x="140.55099"
   y="359.47971">OO</text>

<text
   id="text204"
   inkscape:export-xdpi="96.009476"
   inkscape:export-ydpi="96.009476"
   transform="translate(756.2156,358.525)"
   class="st22 st20 st23"
   style="font-size:85.17189789px;font-family:Arial-Black;fill:#9e9e9e;enable-background:new">PS!</text>

<text
   transform="matrix(1 0 0 1 334.1921 496.9797)"
   class="st24 st25"
   id="text1717"><tspan
     style="fill:#4d4d4d"
     id="tspan2271">无法找到该网页</tspan></text>

</svg>